# xmcd
# Track frame offsets:
# 150
# 12882
# 29512
# 40917
# 54065
# 70390
# 87752
# 102405
# 115670
# 127170
# 142390
# 161095
# 175700
# 189012
# 199010
# 211620
#
# Disc length: 3030 seconds
# Revision: 0
# Processed by: cddbd v1.5.1PL2 Copyright (c) Steve Scherf et al.
# Submitted via: VisiTrax 2.10.0.248 - For more info visit www.synapsa.com
#
DISCID=d70bd410
DTITLE=Various Artist - The Best Of 90's Country
DYEAR=1990
DGENRE=
TTITLE0=Barbara Mandrell - You Wouldn't Know Love (If It Looked You In The Eye
TTITLE0=)
TTITLE1=Garth Brooks - If Tomorrow Never Comes
TTITLE2=Dean Dillon - Back In The Swing Of Things
TTITLE3=Sawyer Brown - The Race Is On
TTITLE4=Tanya Tucker - My Arms Stay Open All Night
TTITLE5=Dan Seals - Love On Arrival
TTITLE6=Suzy Bogguss - My Sweet Love Ain't Around
TTITLE7=Mel McDaniel - You Can't Play The Blues (In An Air Conditioned Room)
TTITLE8=Glen Campbell - Walkin' In The Sun
TTITLE9=Barbara Mandrell with Ray Price - Crazy Arms
TTITLE10=Eddie Rabbitt - Runnin' With The Wind
TTITLE11=New Grass Revival - You Plant Your Fields
TTITLE12=Marie Osmond - Slowly But Surely
TTITLE13=Buck Owens - Gonna Have Love
TTITLE14=Tanya Tucker - Daddy and Home
TTITLE15=Suzy Bogguss - Somewhere Between
EXTD=
EXTT0=
EXTT1=
EXTT2=
EXTT3=
EXTT4=
EXTT5=
EXTT6=
EXTT7=
EXTT8=
EXTT9=
EXTT10=
EXTT11=
EXTT12=
EXTT13=
EXTT14=
EXTT15=
PLAYORDER=
